<svg width="33" height="33" viewBox="0 0 33 33" fill="none" xmlns="http://www.w3.org/2000/svg">
<path d="M16.3059 0C18.527 0 20.6141 0.421251 22.5672 1.26375C24.5203 2.10626 26.2244 3.25512 27.6797 4.71036C29.1349 6.16559 30.2838 7.86336 31.1263 9.80367C31.9688 11.744 32.39 13.8247 32.39 16.0458C32.39 18.267 31.9688 20.3541 31.1263 22.3072C30.2838 24.2602 29.1349 25.9644 27.6797 27.4196C26.2244 28.8749 24.5203 30.0237 22.5672 30.8662C20.6141 31.7087 18.527 32.13 16.3059 32.13C14.0847 32.13 12.004 31.7087 10.0637 30.8662C8.12337 30.0237 6.4256 28.8749 4.97037 27.4196C3.51514 25.9644 2.36627 24.2602 1.52376 22.3072C0.681261 20.3541 0.26001 18.267 0.26001 16.0458C0.26001 13.8247 0.681261 11.744 1.52376 9.80367C2.36627 7.86336 3.51514 6.16559 4.97037 4.71036C6.4256 3.25512 8.12337 2.10626 10.0637 1.26375C12.004 0.421251 14.0847 0 16.3059 0ZM22.3566 7.00809H18.9483C18.2845 7.00809 17.6717 7.12298 17.1101 7.35275C16.5484 7.58252 16.0569 7.88889 15.6357 8.27184C15.2144 8.6548 14.8889 9.08882 14.6592 9.57389C14.4294 10.059 14.3145 10.544 14.3145 11.0291V13.0588H11.2891V17.0415H14.3145V25.0836H18.3355V17.0415H21.3226V13.0588H18.3355V12.0248C18.3355 11.7184 18.4568 11.4759 18.6993 11.2972C18.9419 11.1185 19.1525 11.0291 19.3312 11.0291H22.3566V7.00809Z" fill="white"/>
</svg>
