<svg width="47" height="47" viewBox="0 0 47 47" fill="none" xmlns="http://www.w3.org/2000/svg">
<g filter="url(#filter0_b_736_7)">
<rect x="1" y="1" width="45" height="45" rx="11.4001" fill="url(#paint0_radial_736_7)" fill-opacity="0.2"/>
<rect x="1" y="1" width="45" height="45" rx="11.4001" stroke="url(#paint1_linear_736_7)" stroke-width="0.600005"/>
</g>
<g clip-path="url(#clip0_736_7)">
<path fill-rule="evenodd" clip-rule="evenodd" d="M25.2093 33.567H13.0558C12.9916 33.567 12.9303 33.5419 12.8858 33.4982C12.8397 33.4531 12.814 33.3925 12.814 33.3303V31.6143C12.814 30.6321 13.5312 29.766 14.6362 29.0285C16.6097 27.712 19.8037 26.8806 23.3953 26.8806C23.8965 26.8806 24.3023 26.4834 24.3023 25.993C24.3023 25.5027 23.8965 25.1055 23.3953 25.1055C19.3782 25.1055 15.8213 26.0892 13.6128 27.5618C11.9289 28.6861 11 30.1151 11 31.6143V33.3303C11 33.8643 11.2162 34.3762 11.6024 34.7527C11.9878 35.1299 12.5101 35.3422 13.0558 35.3422H25.2093C25.7104 35.3422 26.1163 34.9442 26.1163 34.4546C26.1163 33.9649 25.7104 33.567 25.2093 33.567Z" fill="url(#paint2_linear_736_7)"/>
<mask id="mask0_736_7" style="mask-type:luminance" maskUnits="userSpaceOnUse" x="11" y="11" width="26" height="25">
<path d="M37 11H11V36H37V11Z" fill="white"/>
</mask>
<g mask="url(#mask0_736_7)">
<path fill-rule="evenodd" clip-rule="evenodd" d="M23.3953 11.0664C19.7243 11.0664 16.7441 13.9828 16.7441 17.5753C16.7441 21.1677 19.7243 24.0842 23.3953 24.0842C27.0663 24.0842 30.0465 21.167 30.0465 17.5753C30.0465 13.9836 27.0663 11.0664 23.3953 11.0664ZM23.3953 12.8416C26.0656 12.8416 28.2325 14.9621 28.2325 17.5753C28.2325 20.1884 26.0656 22.309 23.3953 22.309C20.725 22.309 18.5581 20.187 18.5581 17.5753C18.5581 14.9636 20.725 12.8416 23.3953 12.8416Z" fill="url(#paint3_linear_736_7)"/>
<path fill-rule="evenodd" clip-rule="evenodd" d="M30.0101 35.6738C30.1794 35.8395 30.4107 35.9327 30.6511 35.9327C30.8914 35.9327 31.1227 35.8387 31.292 35.6738L35.8012 31.2611C37.399 29.6974 37.399 27.1582 35.8012 25.5939C34.4022 24.2255 32.2398 24.054 30.6511 25.0813C29.0624 24.054 26.9 24.2255 25.5002 25.5939C23.9092 27.1523 23.9024 29.6775 25.4821 31.2433L30.0094 35.6745L30.0101 35.6738ZM30.6511 33.7914L26.7715 29.9948C25.8932 29.1227 25.897 27.7167 26.7836 26.8491C27.6739 25.9778 29.1198 25.9778 30.0101 26.8491C30.3646 27.196 30.9375 27.196 31.292 26.8491C32.1831 25.9778 33.6282 25.9778 34.5186 26.8491C35.4089 27.7196 35.4089 29.1338 34.5186 30.0066L30.6511 33.7914Z" fill="url(#paint4_linear_736_7)"/>
</g>
</g>
<defs>
<filter id="filter0_b_736_7" x="-6.50011" y="-6.49986" width="60.0002" height="59.9997" filterUnits="userSpaceOnUse" color-interpolation-filters="sRGB">
<feFlood flood-opacity="0" result="BackgroundImageFix"/>
<feGaussianBlur in="BackgroundImageFix" stdDeviation="3.60003"/>
<feComposite in2="SourceAlpha" operator="in" result="effect1_backgroundBlur_736_7"/>
<feBlend mode="normal" in="SourceGraphic" in2="effect1_backgroundBlur_736_7" result="shape"/>
</filter>
<radialGradient id="paint0_radial_736_7" cx="0" cy="0" r="1" gradientUnits="userSpaceOnUse" gradientTransform="translate(1 1) rotate(45) scale(63.6396)">
<stop stop-color="#D4FFB4"/>
<stop offset="1" stop-color="#F7F7F7" stop-opacity="0"/>
</radialGradient>
<linearGradient id="paint1_linear_736_7" x1="23.5" y1="1" x2="23.5" y2="46" gradientUnits="userSpaceOnUse">
<stop stop-color="white"/>
<stop offset="1" stop-color="white" stop-opacity="0"/>
</linearGradient>
<linearGradient id="paint2_linear_736_7" x1="18.5581" y1="25.1055" x2="18.5581" y2="35.3422" gradientUnits="userSpaceOnUse">
<stop stop-color="#E12046"/>
<stop offset="1" stop-color="#751025"/>
</linearGradient>
<linearGradient id="paint3_linear_736_7" x1="23.3953" y1="11.0664" x2="23.3953" y2="24.0842" gradientUnits="userSpaceOnUse">
<stop stop-color="#E12046"/>
<stop offset="1" stop-color="#751025"/>
</linearGradient>
<linearGradient id="paint4_linear_736_7" x1="30.6508" y1="24.4209" x2="30.6508" y2="35.9327" gradientUnits="userSpaceOnUse">
<stop stop-color="#E12046"/>
<stop offset="1" stop-color="#751025"/>
</linearGradient>
<clipPath id="clip0_736_7">
<rect width="26" height="25" fill="white" transform="translate(11 11)"/>
</clipPath>
</defs>
</svg>
