<svg width="33" height="33" viewBox="0 0 33 33" fill="none" xmlns="http://www.w3.org/2000/svg">
<path d="M16.1758 0C18.4023 0 20.488 0.422258 22.4329 1.26677C24.3779 2.11129 26.0797 3.2565 27.5384 4.70242C28.9971 6.14833 30.1487 7.84376 30.9932 9.78871C31.8377 11.7337 32.26 13.8193 32.26 16.0458C32.26 18.2723 31.8377 20.358 30.9932 22.3029C30.1487 24.2478 28.9971 25.9497 27.5384 27.4084C26.0797 28.8671 24.3779 30.0187 22.4329 30.8632C20.488 31.7077 18.4023 32.13 16.1758 32.13C13.9494 32.13 11.8637 31.7077 9.91871 30.8632C7.97377 30.0187 6.27834 28.8671 4.83242 27.4084C3.38651 25.9497 2.2413 24.2478 1.39678 22.3029C0.552263 20.358 0.130005 18.2723 0.130005 16.0458C0.130005 13.8193 0.552263 11.7337 1.39678 9.78871C2.2413 7.84376 3.38651 6.14833 4.83242 4.70242C6.27834 3.2565 7.97377 2.11129 9.91871 1.26677C11.8637 0.422258 13.9494 0 16.1758 0ZM11.1855 12.0535H7.15484V25.1052H11.1855V12.0535ZM9.15097 11.0171C9.71398 11.0171 10.1938 10.8252 10.5905 10.4413C10.9872 10.0574 11.1855 9.58397 11.1855 9.02096C11.1855 8.45795 10.9872 7.98451 10.5905 7.60064C10.1938 7.21677 9.71398 7.02484 9.15097 7.02484C8.58796 7.02484 8.11452 7.21677 7.73065 7.60064C7.34678 7.98451 7.15484 8.45795 7.15484 9.02096C7.15484 9.58397 7.34678 10.0574 7.73065 10.4413C8.11452 10.8252 8.58796 11.0171 9.15097 11.0171ZM25.2352 17.5429C25.2352 16.6216 24.9793 15.7195 24.4674 14.8366C23.9556 13.9537 23.2902 13.2819 22.4713 12.8213C21.7291 12.4118 20.8654 12.1943 19.8802 12.1687C18.8949 12.1431 17.9928 12.3095 17.1739 12.6677V12.0535H13.1816V25.1052H17.1739V17.1206L18.8629 16.3145C19.0676 16.2121 19.3427 16.161 19.6882 16.161C20.0337 16.161 20.3088 16.2249 20.5136 16.3529C20.6671 16.4297 20.8207 16.596 20.9742 16.8519C21.1277 17.1078 21.2045 17.3382 21.2045 17.5429V25.1052H25.2352V17.5429Z" fill="white"/>
</svg>
