<svg width="47" height="47" viewBox="0 0 47 47" fill="none" xmlns="http://www.w3.org/2000/svg">
<g filter="url(#filter0_b_736_6)">
<rect x="1" y="1" width="45" height="45" rx="11.4001" fill="url(#paint0_radial_736_6)" fill-opacity="0.2"/>
<rect x="1" y="1" width="45" height="45" rx="11.4001" stroke="url(#paint1_linear_736_6)" stroke-width="0.600005"/>
</g>
<g clip-path="url(#clip0_736_6)">
<path d="M39.0623 22.6133H36.2491C35.7307 22.6133 35.3114 23.0089 35.3114 23.4981C35.3114 23.9872 35.7307 24.3828 36.2491 24.3828H39.0623C39.5808 24.3828 40 23.9872 40 23.4981C40 23.0089 39.5808 22.6133 39.0623 22.6133Z" fill="url(#paint2_linear_736_6)"/>
<path d="M34.6486 27.6623L36.5241 29.4319C36.8893 29.7764 37.4844 29.7764 37.8495 29.4319C38.2147 29.0873 38.2147 28.5258 37.8495 28.1813L35.9741 26.4117C35.6089 26.0672 35.0138 26.0672 34.6486 26.4117C34.2835 26.7563 34.2835 27.3178 34.6486 27.6623Z" fill="url(#paint3_linear_736_6)"/>
<path d="M35.9741 20.5881L37.8495 18.8186C38.2147 18.474 38.2147 17.9125 37.8495 17.568C37.4844 17.2234 36.8893 17.2234 36.5241 17.568L34.6486 19.3375C34.2835 19.6821 34.2835 20.2436 34.6486 20.5881C35.0138 20.9327 35.6089 20.9327 35.9741 20.5881Z" fill="url(#paint4_linear_736_6)"/>
<path d="M16.4396 35C17.9904 35 19.2527 33.809 19.2527 32.3457V27.9218H20.1905C22.3725 27.9218 24.5635 28.7598 26.0558 30.1635L26.9124 30.9717C27.1152 32.2478 28.2874 33.2304 29.694 33.2304C31.2449 33.2304 32.5072 32.0394 32.5072 30.5761V14.6543C32.5072 13.191 31.2449 12 29.694 12C28.2874 12 27.1152 12.9826 26.9124 14.2587L26.0558 15.067C24.568 16.4707 22.377 17.3087 20.1905 17.3087H14.5641C13.3424 17.3087 12.3009 18.0488 11.9132 19.0782H11.7509C9.6816 19.0782 8 20.6649 8 22.6173C8 24.5698 9.6816 26.1565 11.7509 26.1565H11.9132C12.1972 26.9094 12.8284 27.5049 13.6264 27.7729V32.3457C13.6264 33.809 14.8887 35 16.4396 35ZM28.7518 14.6543C28.7518 14.1652 29.171 13.7696 29.6895 13.7696C30.2079 13.7696 30.6272 14.1652 30.6272 14.6543V30.5761C30.6272 31.0653 30.2079 31.4609 29.6895 31.4609C29.171 31.4609 28.7518 31.0653 28.7518 30.5761V14.6543ZM21.1192 19.0357C23.2561 18.8528 25.2894 18.0488 26.8763 16.7557V28.4705C25.2939 27.1774 23.2561 26.3734 21.1192 26.1905V19.0357ZM11.7509 24.3827C10.7185 24.3827 9.87546 23.5872 9.87546 22.6131C9.87546 21.639 10.7185 20.8435 11.7509 20.8435V24.3827ZM17.3728 32.3457C17.3728 32.8348 16.9535 33.2304 16.4351 33.2304C15.9166 33.2304 15.4973 32.8348 15.4973 32.3457V27.9218H17.3728V32.3457ZM13.6264 19.963C13.6264 19.4738 14.0456 19.0782 14.5641 19.0782H19.2527V26.1565H14.5641C14.0456 26.1565 13.6264 25.7609 13.6264 25.2717V19.963Z" fill="url(#paint5_linear_736_6)"/>
</g>
<defs>
<filter id="filter0_b_736_6" x="-6.50011" y="-6.49986" width="60.0002" height="59.9997" filterUnits="userSpaceOnUse" color-interpolation-filters="sRGB">
<feFlood flood-opacity="0" result="BackgroundImageFix"/>
<feGaussianBlur in="BackgroundImageFix" stdDeviation="3.60003"/>
<feComposite in2="SourceAlpha" operator="in" result="effect1_backgroundBlur_736_6"/>
<feBlend mode="normal" in="SourceGraphic" in2="effect1_backgroundBlur_736_6" result="shape"/>
</filter>
<radialGradient id="paint0_radial_736_6" cx="0" cy="0" r="1" gradientUnits="userSpaceOnUse" gradientTransform="translate(1 1) rotate(45) scale(63.6396)">
<stop stop-color="#D4FFB4"/>
<stop offset="1" stop-color="#F7F7F7" stop-opacity="0"/>
</radialGradient>
<linearGradient id="paint1_linear_736_6" x1="23.5" y1="1" x2="23.5" y2="46" gradientUnits="userSpaceOnUse">
<stop stop-color="white"/>
<stop offset="1" stop-color="white" stop-opacity="0"/>
</linearGradient>
<linearGradient id="paint2_linear_736_6" x1="37.6557" y1="22.6133" x2="37.6557" y2="24.3828" gradientUnits="userSpaceOnUse">
<stop stop-color="#EC375B"/>
<stop offset="1" stop-color="#AB1333"/>
</linearGradient>
<linearGradient id="paint3_linear_736_6" x1="36.2491" y1="26.1533" x2="36.2491" y2="29.6903" gradientUnits="userSpaceOnUse">
<stop stop-color="#EC375B"/>
<stop offset="1" stop-color="#AB1333"/>
</linearGradient>
<linearGradient id="paint4_linear_736_6" x1="36.2491" y1="17.3096" x2="36.2491" y2="20.8466" gradientUnits="userSpaceOnUse">
<stop stop-color="#EC375B"/>
<stop offset="1" stop-color="#AB1333"/>
</linearGradient>
<linearGradient id="paint5_linear_736_6" x1="20.2536" y1="12" x2="20.2536" y2="35" gradientUnits="userSpaceOnUse">
<stop stop-color="#EC375B"/>
<stop offset="1" stop-color="#AB1333"/>
</linearGradient>
<clipPath id="clip0_736_6">
<rect width="32" height="23" fill="white" transform="translate(8 12)"/>
</clipPath>
</defs>
</svg>
