<svg width="20" height="19" viewBox="0 0 20 19" fill="none" xmlns="http://www.w3.org/2000/svg">
<path d="M14.8824 5.56939C15.5025 5.56939 16.0089 5.06094 16.0089 4.42776C16.0089 3.79939 15.5072 3.28613 14.8824 3.28613C14.2576 3.28613 13.7559 3.79459 13.7559 4.42776C13.7559 5.06094 14.2576 5.56939 14.8824 5.56939Z" fill="white"/>
<path d="M9.87921 14.3758C12.5393 14.3758 14.693 12.1932 14.693 9.49745C14.693 6.80167 12.5393 4.61914 9.87921 4.61914C7.21909 4.61914 5.06543 6.80167 5.06543 9.49745C5.06543 12.1932 7.21909 14.3758 9.87921 14.3758ZM9.87921 6.33159C11.6069 6.33159 13.0032 7.75143 13.0032 9.49745C13.0032 11.2435 11.6021 12.6633 9.87921 12.6633C8.15629 12.6633 6.75522 11.2435 6.75522 9.49745C6.75522 7.75143 8.15629 6.33159 9.87921 6.33159Z" fill="white"/>
<path d="M2.07879 17.4027C2.54738 17.8871 3.11538 18.2613 3.74018 18.4963C4.33658 18.7314 5.01818 18.8897 6.01691 18.9376C7.01564 18.9856 7.3375 18.9952 9.87929 18.9952C12.4211 18.9952 12.743 18.9856 13.7417 18.9376C14.7404 18.8897 15.422 18.7314 16.0184 18.4963C17.2775 18.0023 18.2715 16.9949 18.759 15.719C18.9909 15.1146 19.1471 14.4239 19.1945 13.4118C19.2418 12.3996 19.2513 12.0735 19.2513 9.4976C19.2513 6.92174 19.2418 6.59556 19.1945 5.58344C19.1471 4.57132 18.9909 3.88059 18.759 3.27619C18.5223 2.64302 18.1531 2.06741 17.6798 1.59253C17.2112 1.10805 16.6432 0.733905 16.0184 0.498864C15.422 0.263822 14.7404 0.105529 13.7417 0.0575612C12.743 0.00959353 12.4211 0 9.87929 0C7.3375 0 7.01564 0.00959353 6.01691 0.0575612C5.01818 0.105529 4.33658 0.263822 3.74018 0.498864C3.11538 0.738702 2.54738 1.11285 2.07879 1.59253C1.60072 2.06741 1.23152 2.64302 0.99959 3.27619C0.767657 3.88059 0.611457 4.57132 0.564124 5.58344C0.51679 6.59556 0.507324 6.92174 0.507324 9.4976C0.507324 12.0735 0.51679 12.3996 0.564124 13.4118C0.611457 14.4239 0.767657 15.1146 0.99959 15.719C1.23626 16.3522 1.60545 16.9278 2.07879 17.4027ZM2.24919 5.66019C2.29179 4.73441 2.44325 4.23075 2.57105 3.89498C2.72252 3.48245 2.95918 3.10831 3.27158 2.80131C3.57451 2.48473 3.94371 2.24489 4.35078 2.09139C4.68211 1.96188 5.17911 1.80838 6.09264 1.76521C7.0819 1.71724 7.37537 1.70765 9.87929 1.70765C12.3832 1.70765 12.6767 1.71724 13.6659 1.76521C14.5795 1.80838 15.0765 1.96188 15.4078 2.09139C15.8149 2.24489 16.1841 2.48473 16.487 2.80131C16.7994 3.10831 17.0361 3.48245 17.1875 3.89498C17.3153 4.23075 17.4668 4.73441 17.5094 5.66019C17.5567 6.66271 17.5662 6.96011 17.5662 9.4976C17.5662 12.0351 17.5567 12.3325 17.5094 13.335C17.4668 14.2608 17.3153 14.7645 17.1875 15.1002C16.8704 15.9301 16.2267 16.5824 15.4078 16.9038C15.0765 17.0333 14.5795 17.1868 13.6659 17.23C12.6767 17.278 12.3832 17.2876 9.87929 17.2876C7.37537 17.2876 7.0819 17.278 6.09264 17.23C5.17911 17.1868 4.68211 17.0333 4.35078 16.9038C3.94371 16.7503 3.57451 16.5105 3.27158 16.1939C2.95918 15.8869 2.72252 15.5127 2.57105 15.1002C2.44325 14.7645 2.29179 14.2608 2.24919 13.335C2.20185 12.3325 2.19239 12.0351 2.19239 9.4976C2.19239 6.96011 2.20185 6.66271 2.24919 5.66019Z" fill="white"/>
</svg>
