<svg width="47" height="47" viewBox="0 0 47 47" fill="none" xmlns="http://www.w3.org/2000/svg">
<g filter="url(#filter0_b_736_9)">
<rect x="1" y="1" width="45" height="45" rx="11.4001" fill="url(#paint0_radial_736_9)" fill-opacity="0.2"/>
<rect x="1" y="1" width="45" height="45" rx="11.4001" stroke="url(#paint1_linear_736_9)" stroke-width="0.600005"/>
</g>
<g clip-path="url(#clip0_736_9)">
<mask id="mask0_736_9" style="mask-type:luminance" maskUnits="userSpaceOnUse" x="11" y="11" width="25" height="25">
<path d="M36 11H11V36H36V11Z" fill="white"/>
</mask>
<g mask="url(#mask0_736_9)">
<path d="M20.1677 11C15.1139 11 11 15.1139 11 20.1677C11 25.2215 15.1139 29.3354 20.1677 29.3354C21.75 29.3354 23.2405 28.9335 24.5411 28.2215L31.5949 35.2753C32.0791 35.7595 32.7184 36.0032 33.3608 36.0032C34.0032 36.0032 34.6392 35.7627 35.1297 35.2785L35.2753 35.1329C36.2468 34.1487 36.2437 32.5665 35.2753 31.5949L28.2215 24.5411C28.9304 23.2405 29.3354 21.75 29.3354 20.1646C29.3323 15.1139 25.2215 11 20.1677 11ZM25.9494 27.2722C26.4335 26.8766 26.8766 26.4335 27.2722 25.9494L34.0949 32.7722C34.4114 33.0918 34.4114 33.6329 34.0918 33.9557L33.9557 34.0949C33.6361 34.4114 33.0918 34.4146 32.7753 34.0949L25.9525 27.2722H25.9494ZM20.1677 27.6677C16.0316 27.6677 12.6677 24.3038 12.6677 20.1677C12.6677 16.0316 16.0316 12.6677 20.1677 12.6677C24.3038 12.6677 27.6677 16.0316 27.6677 20.1677C27.6677 24.3038 24.3038 27.6677 20.1677 27.6677Z" fill="url(#paint2_linear_736_9)"/>
</g>
<path d="M20.1677 13.5C16.4905 13.5 13.5 16.4905 13.5 20.1677C13.5 20.6297 13.8734 21 14.3323 21C14.7911 21 15.1646 20.6266 15.1646 20.1677C15.1646 17.4114 17.4082 15.1677 20.1646 15.1677C20.6266 15.1677 20.9968 14.7943 20.9968 14.3354C20.9968 13.8766 20.6234 13.5032 20.1646 13.5032L20.1677 13.5Z" fill="url(#paint3_linear_736_9)"/>
</g>
<defs>
<filter id="filter0_b_736_9" x="-6.50011" y="-6.49986" width="60.0002" height="59.9997" filterUnits="userSpaceOnUse" color-interpolation-filters="sRGB">
<feFlood flood-opacity="0" result="BackgroundImageFix"/>
<feGaussianBlur in="BackgroundImageFix" stdDeviation="3.60003"/>
<feComposite in2="SourceAlpha" operator="in" result="effect1_backgroundBlur_736_9"/>
<feBlend mode="normal" in="SourceGraphic" in2="effect1_backgroundBlur_736_9" result="shape"/>
</filter>
<radialGradient id="paint0_radial_736_9" cx="0" cy="0" r="1" gradientUnits="userSpaceOnUse" gradientTransform="translate(1 1) rotate(45) scale(63.6396)">
<stop stop-color="#D4FFB4"/>
<stop offset="1" stop-color="#F7F7F7" stop-opacity="0"/>
</radialGradient>
<linearGradient id="paint1_linear_736_9" x1="23.5" y1="1" x2="23.5" y2="46" gradientUnits="userSpaceOnUse">
<stop stop-color="white"/>
<stop offset="1" stop-color="white" stop-opacity="0"/>
</linearGradient>
<linearGradient id="paint2_linear_736_9" x1="23.5014" y1="11" x2="23.5014" y2="36.0032" gradientUnits="userSpaceOnUse">
<stop stop-color="#7B1126"/>
<stop offset="1" stop-color="#EC375B"/>
</linearGradient>
<linearGradient id="paint3_linear_736_9" x1="17.2484" y1="13.5" x2="17.2484" y2="21" gradientUnits="userSpaceOnUse">
<stop stop-color="#7B1126"/>
<stop offset="1" stop-color="#EC375B"/>
</linearGradient>
<clipPath id="clip0_736_9">
<rect width="25" height="25" fill="white" transform="translate(11 11)"/>
</clipPath>
</defs>
</svg>
