<svg xmlns="http://www.w3.org/2000/svg" width="294" height="16" viewBox="0 0 294 16" fill="none"><path d="M10.833 12.449L12.3837 3.34704H14.8647L13.3128 12.449H10.833ZM22.2761 3.54383C21.5635 3.28686 20.8116 3.15841 20.0527 3.16347C17.6014 3.16347 15.8748 4.39766 15.8596 6.16666C15.8463 7.47489 17.0919 8.20405 18.035 8.64076C18.9995 9.08697 19.3242 9.37112 19.3192 9.76922C19.3128 10.38 18.5476 10.6547 17.8349 10.6547C17.0305 10.6775 16.2311 10.5141 15.5008 10.1755L15.1805 10.0306L14.8312 12.0679C15.7147 12.3952 16.652 12.5585 17.5944 12.5547C20.2021 12.5547 21.8983 11.3338 21.9141 9.44519C21.9242 8.40911 21.2634 7.6217 19.8312 6.97233C18.9641 6.55144 18.4331 6.27043 18.4394 5.84448C18.4394 5.46473 18.8888 5.0616 19.8597 5.0616C20.497 5.04831 21.1293 5.16605 21.7179 5.41036L21.9407 5.51535L22.2761 3.54383ZM28.6597 3.34766H26.7432C26.1894 3.27678 25.6565 3.58627 25.4445 4.10273L21.7603 12.4439H24.3654C24.3654 12.4439 24.7913 11.323 24.8869 11.0762L28.0648 11.0806C28.1382 11.3971 28.3667 12.4439 28.3667 12.4439H30.6698L28.6597 3.34766ZM25.6198 9.22361C25.8243 8.69956 26.6084 6.67866 26.6084 6.67866C26.5951 6.70334 26.8116 6.15211 26.9382 5.81033L27.1066 6.59514C27.1066 6.59514 27.5812 8.76921 27.6799 9.22237H25.6205V9.22361H25.6198ZM8.72794 3.34766L6.2988 9.55529L6.04122 8.29579C5.4121 6.63882 4.18615 5.27744 2.60449 4.47744L4.82727 12.4369H7.45133L11.3571 3.35268H8.72984" fill="white"></path><path d="M4.03229 2.73791H0.0316381L0 2.92782C3.11268 3.68099 5.17218 5.50185 6.02599 7.68921L5.15573 3.50688C5.02471 3.00625 4.54496 2.67842 4.03167 2.73791" fill="white"></path><path d="M49.0572 9.29564C49.08 9.00133 49.1205 8.70697 49.1762 8.41773C49.2262 8.1095 49.5535 6.16838 49.5535 6.16838H50.1066C50.4477 4.52596 51.2743 3.02403 52.48 1.85757C51.0667 0.657559 49.2718 -0.000632459 47.4167 4.56032e-07C43.0787 0.00506378 39.5641 3.52022 39.5591 7.85759C39.5641 12.1956 43.0793 15.7108 47.4167 15.7159C49.2718 15.7171 51.0667 15.0583 52.48 13.8589C51.3775 12.7906 50.5895 11.4424 50.2003 9.9576C50.0515 9.99811 49.8971 10.0197 49.7408 10.021C49.3927 10.0545 49.0851 9.79684 49.0515 9.45C49.0477 9.3981 49.049 9.34627 49.0572 9.29564ZM42.8768 9.9627L43.3724 6.84749L42.2629 9.9627H41.6711L41.5989 6.86457L41.0768 9.9627H40.2661L40.9433 5.91203H42.192L42.2268 8.42152L43.0686 5.91203H44.4154L43.7433 9.9627H42.8768ZM45.792 9.9627L45.8072 9.62029C45.5851 9.89244 45.2464 10.0405 44.8971 10.0196C44.4496 10.012 44.0926 9.64368 44.1002 9.1962C44.1009 9.17025 44.1028 9.14432 44.1053 9.11964C44.1053 8.31584 44.6655 7.84879 45.6275 7.84879C45.7465 7.85005 45.8642 7.85823 45.9819 7.87405C46.0028 7.80443 46.0148 7.7329 46.0167 7.66012C46.0167 7.44176 45.8667 7.36081 45.461 7.36081C45.1484 7.36018 44.8389 7.41012 44.542 7.50822C44.5521 7.45379 44.661 6.76776 44.661 6.76776C44.9964 6.657 45.3471 6.59751 45.7009 6.59308C46.4465 6.59308 46.8408 6.92783 46.8408 7.55821C46.8338 7.77783 46.8098 7.99622 46.7699 8.21268C46.6958 8.6899 46.5338 9.71332 46.5129 9.96332H45.792V9.9627ZM48.3319 8.00068C48.7211 8.13233 48.9737 8.50888 48.9446 8.91838C48.9446 9.67218 48.5218 10.021 47.6066 10.021C47.3034 10.0222 47.0003 9.98991 46.7041 9.92345C46.7091 9.88864 46.823 9.1646 46.823 9.1646C47.0737 9.24878 47.337 9.29306 47.6009 9.29432C47.9439 9.29432 48.0996 9.20064 48.0996 8.99494C48.0996 8.84684 48.0446 8.79749 47.6927 8.63166C47.2965 8.50065 47.0294 8.12914 47.0319 7.71142C47.0319 7.10192 47.3642 6.59555 48.3357 6.59555C48.5908 6.60061 48.8471 6.62155 49.099 6.65952L48.9769 7.42409C48.7712 7.39371 48.5629 7.37726 48.3541 7.3741C48.0743 7.3741 47.9294 7.46581 47.9294 7.64366C47.9268 7.79619 47.9692 7.83296 48.3319 8.00068Z" fill="white"></path><path d="M44.9466 8.98382C44.9289 9.14964 45.0472 9.29899 45.2143 9.31735C45.2276 9.31861 45.2434 9.31985 45.2567 9.31858C45.6112 9.31858 45.8643 8.98257 45.8783 8.49522C45.8137 8.4851 45.7504 8.48193 45.6852 8.48193C45.1947 8.4832 44.9466 8.65027 44.9466 8.98382Z" fill="white"></path><path d="M59.3525 8.48291C58.8626 8.48291 58.612 8.65251 58.612 8.98479C58.5949 9.15062 58.7139 9.29997 58.8797 9.31832C58.8943 9.31959 58.9095 9.3209 58.9228 9.31964C59.2772 9.31964 59.531 8.98354 59.5449 8.4962C59.4816 8.48797 59.4171 8.48418 59.3525 8.48291Z" fill="white"></path><path d="M58.2998 0.00122116C56.4453 0.000588244 54.6504 0.658795 53.2365 1.85817C54.5574 3.13539 55.4194 4.81198 55.6909 6.62845C56.0194 6.11452 56.5858 5.80632 57.1941 5.80949C57.5226 5.82721 57.8435 5.89874 58.1492 6.02025L58.0061 6.90002C57.77 6.76457 57.5036 6.68921 57.2308 6.68098C56.5839 6.68098 56.1295 7.30632 56.1295 8.2C56.1295 8.81582 56.4333 9.188 56.9384 9.188C57.196 9.17534 57.4491 9.10509 57.6751 8.9804L57.5225 9.90382C57.2738 9.9804 57.0162 10.0215 56.7567 10.0228C56.3188 10.0393 55.8973 9.85126 55.6175 9.51265C55.2821 11.169 54.4523 12.688 53.2358 13.8627C54.6498 15.0627 56.4447 15.7222 58.2992 15.721C62.6372 15.7153 66.1524 12.2007 66.1574 7.86268C66.1561 3.52278 62.6397 0.00501865 58.2998 0.00122116ZM60.1764 9.96269H59.4568L59.4726 9.62027C59.2504 9.89243 58.9118 10.0405 58.5624 10.0196C58.1156 10.012 57.758 9.64243 57.765 9.19495C57.7656 9.17027 57.7675 9.14431 57.77 9.11963C57.77 8.31582 58.3314 7.84939 59.2928 7.84939C59.4118 7.85066 59.5296 7.85883 59.6473 7.87465C59.6669 7.80503 59.6795 7.73295 59.6814 7.6608C59.6814 7.44244 59.5314 7.36141 59.1257 7.36141C58.8143 7.36078 58.5042 7.4108 58.208 7.5089C58.2169 7.45447 58.327 6.76837 58.327 6.76837C58.6612 6.65761 59.0124 6.59811 59.3662 6.59368C60.1112 6.59368 60.5055 6.92851 60.5055 7.55889C60.4985 7.77851 60.4758 7.99684 60.4353 8.21267C60.3593 8.69052 60.1979 9.71459 60.1764 9.96269ZM61.3334 9.96269H60.4669L60.5061 9.74118C60.6568 8.72029 60.8498 7.68547 60.9587 6.66584H61.7555C61.7524 6.83356 61.7359 7.00062 61.7043 7.16517C61.9701 6.7753 62.1726 6.57092 62.5353 6.6456C62.3764 6.94497 62.2644 7.26775 62.2055 7.60193C61.7188 7.55382 61.6435 7.94812 61.3334 9.96269ZM63.9467 9.96269L63.9865 9.65573C63.789 9.89118 63.4947 10.0247 63.1859 10.0196C62.553 10.0196 62.139 9.47721 62.139 8.65189C62.139 7.55632 62.7852 6.63162 63.5498 6.63162C63.884 6.62972 64.1967 6.79939 64.3796 7.08104L64.5694 5.91016H65.4258L64.7656 9.96014L63.9467 9.96269Z" fill="white"></path><path d="M63.7161 7.44482C63.3224 7.44482 63.0439 7.90432 63.0439 8.55243C63.0439 8.98407 63.194 9.20118 63.487 9.20118C63.8914 9.20118 64.175 8.74356 64.175 8.09103C64.1756 7.67267 64.0148 7.44482 63.7161 7.44482Z" fill="white"></path><path d="M52.1239 7.34375C51.8492 7.34375 51.653 7.55329 51.5732 7.93178H52.5226C52.5296 7.86342 52.6169 7.34375 52.1239 7.34375Z" fill="white"></path><path d="M55.2708 7.78343C55.2708 7.52394 55.255 7.26756 55.2278 7.01377C55.1575 7.20554 55.1031 7.40239 55.0639 7.60303C54.5765 7.55366 54.5018 7.94797 54.1929 9.96317H53.3252L53.3645 9.74105C53.5151 8.72016 53.7082 7.68656 53.8176 6.66756H54.6138C54.6107 6.83529 54.5942 7.0024 54.5619 7.16759C54.7702 6.86189 54.943 6.67073 55.1797 6.63782C54.9113 4.94414 54.0961 3.3853 52.8588 2.19922C51.6138 3.3929 50.7967 4.96312 50.534 6.66756H50.7581L50.6397 7.4594H50.4486C50.4423 7.59168 50.4385 7.7252 50.4385 7.85938C50.4378 9.99673 51.3106 12.0417 52.8531 13.5189C54.2404 12.1885 55.0911 10.3936 55.2417 8.47646C55.2366 8.41 55.2335 8.34161 55.2335 8.27009C55.2379 8.10807 55.2486 7.94482 55.2708 7.78343ZM52.2569 9.27517C52.5676 9.27391 52.8752 9.20368 53.1537 9.06634L53.0094 9.88978C52.7233 9.97902 52.4233 10.0245 52.1239 10.0233C51.4062 10.1157 50.7486 9.60939 50.6569 8.89103C50.6429 8.77837 50.6436 8.66503 50.6569 8.55364C50.6569 7.42578 51.2974 6.59795 52.1664 6.59795C52.7733 6.56061 53.2955 7.02201 53.3341 7.62961C53.3372 7.6834 53.3366 7.73721 53.3322 7.791C53.3271 8.06442 53.2929 8.33657 53.2258 8.60239H51.5081C51.4511 9.07708 51.7575 9.27517 52.2594 9.27517H52.2569Z" fill="white"></path><path d="M174.118 5.04359H174.238L174.333 5.01131L174.429 4.97903L174.514 4.89295L174.599 4.80624L174.642 4.69168L174.687 4.57649V4.4075V4.23852L174.648 4.17522L174.609 4.11193L174.54 4.06953L174.472 4.02649H174.171L174.069 4.07269L173.968 4.11763L173.908 4.18155L173.849 4.24485L173.803 4.35434L173.757 4.4632L173.746 4.63346L173.737 4.80498L173.779 4.88979L173.821 4.9746L173.906 5.01321L173.988 5.05118L174.118 5.04359ZM193.366 9.89868H193.801V9.63222L193.851 9.30247C193.879 9.12083 193.924 8.83412 193.952 8.66449C193.98 8.49297 194.016 8.28032 194.03 8.18728C194.043 8.09361 194.082 7.89234 194.116 7.73917C194.151 7.58601 194.19 7.42272 194.209 7.37145C194.222 7.33411 194.233 7.29613 194.241 7.25689C194.263 7.18854 194.291 7.12208 194.323 7.05816L194.405 6.88474L194.513 6.74106L194.622 6.59739L194.741 6.50815C194.813 6.45372 194.892 6.40499 194.973 6.36321L195.087 6.30815H195.337H195.587L195.684 6.33916L195.782 6.37018L195.797 6.36005L195.813 6.34992V6.28663C195.823 6.18916 195.839 6.09296 195.86 5.99739L195.906 5.7727L195.854 5.75182C195.804 5.73346 195.753 5.71574 195.703 5.69992L195.603 5.66891H195.247L195.102 5.72017L194.957 5.77144L194.847 5.83473L194.738 5.89802L194.594 6.04739L194.451 6.19612L194.374 6.31195C194.352 6.35182 194.324 6.38916 194.292 6.42144C194.292 6.41764 194.311 6.28537 194.343 6.1265C194.374 5.96764 194.4 5.81764 194.4 5.79359V5.74992H193.665V5.76258C193.665 5.76954 193.646 5.89676 193.624 6.04612C193.602 6.19549 193.558 6.48157 193.524 6.68474C193.485 6.92714 193.446 7.16892 193.406 7.41069C193.37 7.61955 193.334 7.82905 193.295 8.03728C193.267 8.18411 193.218 8.44551 193.186 8.61449C193.153 8.78475 193.1 9.0569 193.067 9.22146L192.973 9.70501L192.935 9.88919L193.366 9.89868ZM183.283 9.89868H183.708L183.721 9.7183C183.728 9.61956 183.753 9.4202 183.774 9.27589C183.795 9.13222 183.842 8.84171 183.877 8.63412C183.918 8.37715 183.966 8.12082 184.016 7.86512C184.058 7.65056 184.108 7.43664 184.124 7.39044C184.137 7.35436 184.147 7.31702 184.153 7.27904C184.17 7.21638 184.194 7.15562 184.223 7.0974C184.27 6.99803 184.324 6.90119 184.385 6.80879L184.477 6.67461L184.596 6.56195L184.717 6.44929L184.866 6.3784L185.015 6.30625H185.244H185.471L185.584 6.34043C185.648 6.35878 185.702 6.37397 185.71 6.37397C185.72 6.37397 185.723 6.35309 185.723 6.32714C185.723 6.30119 185.746 6.17017 185.773 6.036C185.8 5.90182 185.822 5.786 185.822 5.78283C185.777 5.75688 185.728 5.73789 185.677 5.7265C185.597 5.70245 185.515 5.68346 185.433 5.67017L185.333 5.65751L185.207 5.68093C185.127 5.69612 185.049 5.71764 184.972 5.74422C184.899 5.77334 184.827 5.81005 184.759 5.85182C184.687 5.90055 184.617 5.95562 184.555 6.01574C184.483 6.08979 184.416 6.16828 184.356 6.25055C184.313 6.31005 184.268 6.36954 184.225 6.42967L184.196 6.46954L184.214 6.3898C184.223 6.34549 184.251 6.19992 184.272 6.07334C184.294 5.94676 184.319 5.82017 184.325 5.79992L184.337 5.76511H183.577V5.81321C183.577 5.83916 183.555 5.99802 183.528 6.16638C183.502 6.33537 183.455 6.61448 183.427 6.78917C183.399 6.96322 183.35 7.26892 183.318 7.46575C183.282 7.67651 183.247 7.88601 183.208 8.09234C183.133 8.49044 183.058 8.88791 182.979 9.28538C182.944 9.45501 182.905 9.65501 182.889 9.72779C182.875 9.80184 182.861 9.87336 182.861 9.88222V9.89931L183.283 9.89868ZM173.276 9.89868H173.705L173.718 9.8664C173.727 9.83286 173.732 9.79995 173.731 9.76514C173.731 9.72653 173.757 9.52906 173.791 9.32273C173.866 8.85943 173.942 8.39297 174.022 7.92588C174.056 7.72905 174.09 7.53474 174.128 7.33917C174.16 7.17524 174.209 6.91955 174.236 6.76955C174.263 6.61955 174.319 6.34106 174.357 6.14549C174.396 5.94992 174.433 5.78156 174.438 5.77207L174.451 5.75435L174.016 5.75941L173.583 5.76511L173.545 6.02397C173.526 6.16638 173.482 6.44802 173.45 6.65056C173.417 6.85309 173.366 7.16259 173.338 7.33664C173.303 7.54613 173.268 7.75436 173.23 7.96322C173.197 8.13285 173.149 8.39171 173.12 8.54044C173.092 8.68918 173.044 8.94931 173.01 9.11703C172.977 9.28602 172.932 9.51007 172.911 9.61387C172.89 9.71767 172.867 9.82273 172.86 9.84741L172.847 9.89109L173.276 9.89868ZM167.925 9.89868H168.41L168.445 9.68412C168.464 9.56577 168.502 9.34045 168.527 9.18222L168.637 8.52652C168.671 8.32399 168.722 8.02525 168.751 7.85943C168.78 7.69487 168.822 7.44044 168.848 7.2936C168.861 7.19993 168.883 7.10626 168.909 7.01512L168.921 7.00372H171.519L171.532 7.01702L171.545 7.03094L171.524 7.14613C171.511 7.20942 171.475 7.40436 171.442 7.57968C171.41 7.755 171.354 8.05057 171.322 8.23728C171.285 8.43285 171.25 8.62842 171.213 8.82462C171.186 8.9607 171.133 9.24741 171.094 9.46134C171.054 9.67463 171.024 9.86134 171.024 9.874V9.89868H171.995L172.016 9.77273C172.028 9.70564 172.047 9.58222 172.057 9.49868C172.068 9.4145 172.096 9.24235 172.121 9.11133C172.144 8.98032 172.187 8.72082 172.218 8.53411C172.25 8.34867 172.306 8.02905 172.337 7.82905C172.369 7.62905 172.42 7.33094 172.447 7.17271C172.483 6.97398 172.518 6.77461 172.556 6.57587C172.588 6.40499 172.643 6.11954 172.675 5.93916C172.706 5.75878 172.757 5.48536 172.785 5.33283C172.813 5.18029 172.863 4.90181 172.897 4.71573C172.931 4.52966 172.975 4.31257 172.992 4.23345L173.026 4.08852H172.042L172.029 4.18282C172.02 4.23472 171.997 4.38029 171.976 4.50624C171.955 4.63219 171.912 4.85561 171.888 5.00371C171.864 5.15118 171.813 5.43283 171.78 5.6303C171.747 5.82777 171.716 6.01638 171.688 6.21005L171.654 6.43157L170.931 6.44613L170.21 6.46005L169.606 6.44613C169.274 6.4379 168.999 6.4303 168.997 6.4284C169.002 6.37018 169.011 6.31258 169.023 6.25625C169.043 6.13726 169.065 6.01828 169.089 5.89929C169.12 5.74739 169.15 5.59485 169.18 5.44169C169.206 5.29422 169.238 5.11067 169.248 5.03409C169.26 4.95751 169.281 4.83029 169.298 4.75055C169.314 4.6708 169.345 4.50371 169.368 4.37902C169.389 4.25434 169.411 4.13852 169.42 4.12079L169.433 4.08915H168.457L168.425 4.2632C168.41 4.35814 168.386 4.49548 168.376 4.56637C168.364 4.63725 168.328 4.86574 168.295 5.0727C168.262 5.27966 168.212 5.58916 168.184 5.75878L168.075 6.44486C168.036 6.68347 167.997 6.92208 167.956 7.16069C167.919 7.35626 167.883 7.55183 167.847 7.7474C167.821 7.88474 167.772 8.14424 167.737 8.32589C167.703 8.50753 167.664 8.7069 167.626 8.89551C167.599 9.02652 167.569 9.17779 167.561 9.23222C167.554 9.28792 167.522 9.44488 167.494 9.58412C167.466 9.72273 167.443 9.84995 167.443 9.8664V9.89931H167.927H167.925V9.89868ZM196.863 9.99488H197.053L197.232 9.96514C197.329 9.95058 197.456 9.92463 197.509 9.90817C197.584 9.88476 197.657 9.85501 197.729 9.81893L197.848 9.75438L197.951 9.6626L198.054 9.57083L198.162 9.42589C198.205 9.3702 198.246 9.3107 198.281 9.25311L198.292 9.22336L198.282 9.32209C198.275 9.38792 198.266 9.45437 198.254 9.51956C198.244 9.57399 198.232 9.67906 198.224 9.75311L198.211 9.88665H198.991V9.62146L199.051 9.1145C199.084 8.83728 199.132 8.46513 199.158 8.29107C199.185 8.11955 199.224 7.86639 199.25 7.73538C199.276 7.60436 199.314 7.36702 199.342 7.20816C199.371 7.04929 199.419 6.77208 199.451 6.5917C199.484 6.41132 199.539 6.12524 199.57 5.95498C199.601 5.78473 199.65 5.52144 199.679 5.36827C199.709 5.2151 199.758 4.94675 199.792 4.77143C199.827 4.59611 199.863 4.40624 199.902 4.22459C199.929 4.09801 199.95 3.98915 199.95 3.98092V3.96826H199.097L199.084 4.09484C199.077 4.16257 199.045 4.38915 199.013 4.59675C198.974 4.84232 198.934 5.08789 198.894 5.33346C198.87 5.4746 198.847 5.61637 198.825 5.75751L198.811 5.82397L198.777 5.80941C198.76 5.80182 198.658 5.77334 198.554 5.74612L198.364 5.69929L198.105 5.67903L197.847 5.65878L197.628 5.67903L197.408 5.69929L197.211 5.74992L197.012 5.80055L196.822 5.89296L196.632 5.98536L196.492 6.0879L196.356 6.19106L196.236 6.31764C196.161 6.40056 196.091 6.4879 196.024 6.57841L195.932 6.71005L195.823 6.93474C195.765 7.06132 195.692 7.22271 195.663 7.2993C195.633 7.37588 195.584 7.5455 195.548 7.67968L195.484 7.91765L195.454 8.22652L195.425 8.53475L195.446 8.78412L195.469 9.03475L195.496 9.12462C195.509 9.17399 195.541 9.26197 195.563 9.32083L195.604 9.42589L195.681 9.52969L195.758 9.63475L195.846 9.70564L195.935 9.77653L196.054 9.83539C196.133 9.87463 196.215 9.90374 196.299 9.92843C196.382 9.94931 196.465 9.96767 196.549 9.97906C196.616 9.98792 196.757 9.99552 196.861 9.99678V9.99488H196.863ZM197.202 9.42969L197.052 9.43729L196.951 9.41893C196.885 9.40564 196.816 9.38539 196.754 9.35944L196.657 9.31893L196.576 9.25121L196.494 9.18538L196.374 8.95437L196.347 8.82715L196.319 8.70184V8.44297V8.18601L196.351 7.95563L196.383 7.72715L196.433 7.56829C196.453 7.50816 196.471 7.4474 196.483 7.38474C196.498 7.33031 196.521 7.27714 196.547 7.22588C196.586 7.14043 196.626 7.05499 196.669 6.97334C196.71 6.89423 196.76 6.81828 196.811 6.74613C196.865 6.67651 196.924 6.61005 196.985 6.54866C197.043 6.49486 197.104 6.44613 197.169 6.40309L197.26 6.34802L197.416 6.29423L197.572 6.2398H198.228L198.418 6.29233C198.522 6.32081 198.632 6.35625 198.664 6.36638L198.721 6.3879L198.708 6.44233C198.702 6.47271 198.679 6.60436 198.656 6.73537C198.633 6.86638 198.589 7.11512 198.556 7.29233C198.523 7.46892 198.475 7.73158 198.445 7.87905C198.415 8.02652 198.378 8.21639 198.354 8.29804C198.33 8.37968 198.31 8.46703 198.286 8.5493C198.264 8.62462 198.237 8.69677 198.203 8.76893C198.168 8.83855 198.13 8.9088 198.085 8.97336C198.047 9.02842 198.004 9.07779 197.959 9.12399C197.903 9.17273 197.844 9.21703 197.784 9.2588L197.673 9.33095L197.357 9.43096L197.208 9.44045L197.202 9.42969ZM190.139 9.98729L190.408 9.97843L190.577 9.93539L190.747 9.89235L190.856 9.84172C190.932 9.80311 191.005 9.76134 191.077 9.7145C191.15 9.66387 191.22 9.60691 191.284 9.54488C191.347 9.48159 191.404 9.41387 191.459 9.34361C191.484 9.30754 191.512 9.27463 191.544 9.24488C191.542 9.3126 191.534 9.38222 191.523 9.44868C191.508 9.55627 191.497 9.66387 191.494 9.77273V9.89868H192.223L192.236 9.61577L192.247 9.33412L192.3 8.96576C192.328 8.76323 192.374 8.46323 192.403 8.29804C192.432 8.13538 192.478 7.85626 192.511 7.68094C192.542 7.50689 192.591 7.23284 192.62 7.07461L192.674 6.786V6.536V6.28726L192.617 6.17081L192.561 6.05562L192.485 5.9822L192.408 5.90815L192.282 5.84486L192.156 5.78156L191.782 5.69865L191.523 5.67967L191.267 5.66068L190.937 5.68093C190.754 5.69232 190.499 5.71448 190.368 5.7303L190.13 5.75941H189.804L189.779 5.87397C189.766 5.93726 189.731 6.086 189.699 6.20625C189.678 6.27967 189.66 6.35435 189.649 6.4303C189.715 6.42018 189.777 6.40562 189.839 6.38663C189.942 6.35878 190.161 6.31385 190.326 6.28537L190.625 6.2341L190.887 6.22271L191.155 6.21131L191.501 6.27461L191.618 6.33157L191.734 6.38853L191.799 6.48473L191.863 6.58094V6.73284V6.88474L191.827 7.05183L191.792 7.21892H191.075H190.36L190.126 7.28221C190.018 7.31069 189.913 7.34613 189.809 7.38727C189.777 7.40436 189.744 7.41765 189.709 7.42715C189.649 7.45373 189.592 7.48537 189.538 7.52145L189.386 7.61575L189.267 7.73538C189.201 7.8031 189.137 7.87652 189.081 7.95436C189.03 8.03538 188.986 8.12019 188.947 8.20753L188.883 8.36323L188.853 8.53475L188.821 8.70753V9.07209L188.85 9.22146L188.88 9.37336L188.934 9.47209C188.969 9.53539 189.008 9.59425 189.053 9.64994L189.12 9.72843L189.239 9.80058L189.358 9.8721L189.494 9.91134C189.568 9.93159 189.684 9.95754 189.746 9.96893L189.863 9.98602L190.132 9.97843L190.139 9.98729ZM190.388 9.43096L190.229 9.43855L190.123 9.4126C190.057 9.39425 189.99 9.37083 189.927 9.33982L189.835 9.29425L189.786 9.23475C189.751 9.19171 189.72 9.14424 189.694 9.09361L189.652 9.01197L189.643 8.82272L189.634 8.63222L189.666 8.51449C189.694 8.42905 189.727 8.34614 189.764 8.26702L189.828 8.13664L189.947 8.01639L190.066 7.8974L190.192 7.83348L190.319 7.77019L190.478 7.73158L190.637 7.69424H191.632L191.663 7.70753L191.695 7.72082L191.668 7.87715C191.654 7.96322 191.62 8.11829 191.592 8.22082C191.563 8.32462 191.515 8.47399 191.482 8.5607C191.45 8.64677 191.423 8.71639 191.423 8.72336C191.403 8.76956 191.378 8.81576 191.351 8.85817L191.278 8.97969L191.159 9.09804C191.12 9.14171 191.073 9.18285 191.023 9.21703C190.992 9.22969 190.961 9.24678 190.934 9.2664L190.861 9.31576L190.7 9.36766L190.539 9.41703L190.38 9.42716H190.385V9.42969H190.388V9.43096ZM186.867 9.99488H187.087L187.335 9.96514C187.473 9.94931 187.652 9.92336 187.74 9.90564C187.845 9.88476 187.948 9.86007 188.05 9.83286C188.108 9.8183 188.164 9.79931 188.218 9.7759C188.243 9.71007 188.259 9.64362 188.271 9.57463C188.29 9.4721 188.316 9.33475 188.328 9.26956C188.337 9.22969 188.341 9.18538 188.341 9.14361C188.337 9.13855 188.323 9.14361 188.308 9.1569C188.239 9.19425 188.165 9.22273 188.092 9.24931L187.901 9.32083L187.627 9.37273L187.354 9.42589L187.121 9.41577L186.889 9.40564L186.758 9.36197L186.626 9.3183L186.525 9.22652L186.423 9.13728L186.356 9.01007L186.29 8.88918L186.257 8.72462L186.225 8.5588V8.13285L186.264 7.87398L186.303 7.61512L186.343 7.47588C186.366 7.3993 186.392 7.31006 186.401 7.27714C186.423 7.20626 186.451 7.136 186.482 7.06828C186.518 6.98664 186.581 6.85942 186.625 6.78663L186.702 6.65436L186.796 6.55625L186.889 6.45815L186.989 6.39486L187.089 6.3303L187.215 6.29106C187.306 6.26385 187.398 6.24296 187.492 6.22714L187.641 6.20372L187.86 6.21574L188.08 6.22714L188.337 6.27904L188.597 6.3303L188.703 6.36954C188.76 6.3917 188.809 6.40878 188.813 6.40878C188.826 6.35499 188.837 6.30056 188.844 6.24486C188.857 6.15435 188.883 6.00625 188.899 5.91511C188.913 5.85815 188.92 5.79992 188.92 5.74106C188.863 5.72777 188.804 5.71827 188.748 5.71384C188.657 5.70308 188.413 5.68536 188.204 5.67334L187.823 5.65182L187.555 5.6727L187.287 5.69296L187.089 5.73473L186.89 5.77524L186.764 5.82713C186.685 5.86005 186.609 5.89802 186.536 5.94043C186.483 5.97271 186.43 6.00372 186.379 6.04233C186.306 6.10182 186.235 6.16511 186.17 6.2322L186.018 6.3822L185.932 6.50878C185.866 6.61068 185.807 6.71638 185.753 6.82524L185.659 7.01512L185.587 7.22461C185.547 7.33917 185.492 7.52778 185.46 7.6417L185.409 7.8512L185.392 8.04107L185.373 8.23095V8.72779L185.392 8.87336L185.409 9.01829L185.474 9.1664L185.533 9.3145L185.601 9.42336L185.669 9.52969L185.778 9.63729L185.888 9.74615L186.005 9.80944L186.121 9.87273L186.274 9.9145C186.363 9.93919 186.451 9.95881 186.542 9.974C186.654 9.98666 186.766 9.99362 186.877 9.99362H186.87L186.867 9.99488ZM180.542 9.99488H180.761L180.98 9.97463C181.099 9.96387 181.296 9.94045 181.417 9.92463C181.538 9.90754 181.747 9.86893 181.878 9.83919L182.121 9.78602L182.134 9.69551C182.142 9.64615 182.17 9.49804 182.199 9.36893L182.248 9.13159L182.235 9.12019L182.224 9.10754L182.15 9.14361C182.109 9.16323 181.98 9.21007 181.868 9.24868L181.658 9.31766L181.439 9.35944L181.219 9.40121H180.87H180.522L180.403 9.36197C180.33 9.33792 180.258 9.30944 180.187 9.27716L180.094 9.23032L179.938 9.08981L179.873 8.98222L179.809 8.87589L179.77 8.74108L179.731 8.60753V8.1088L179.764 7.88664L179.801 7.66449L180.397 7.63601L181.504 7.6436L182.611 7.64993L182.644 7.50879C182.663 7.43031 182.69 7.26955 182.709 7.15056L182.738 6.9341V6.57081L182.706 6.43537L182.675 6.29929L182.623 6.20942C182.589 6.15372 182.552 6.10055 182.509 6.05055C182.47 6.00625 182.426 5.96638 182.378 5.93093C182.339 5.90372 182.262 5.85751 182.208 5.82777L182.108 5.77524L181.934 5.73346L181.763 5.69169L181.548 5.67144L181.335 5.65055L181.136 5.66384L180.939 5.67713L180.699 5.72334L180.461 5.76891L180.313 5.82903C180.218 5.86764 180.125 5.91195 180.035 5.96131C179.959 6.00498 179.887 6.05372 179.816 6.10625C179.766 6.14612 179.681 6.22461 179.626 6.2784C179.56 6.34613 179.499 6.41954 179.445 6.49739C179.402 6.56068 179.333 6.67904 179.295 6.75625C179.256 6.83347 179.205 6.94043 179.183 6.99486C179.16 7.04929 179.118 7.16132 179.09 7.2436C179.061 7.32588 179.02 7.48221 178.994 7.5917C178.963 7.72398 178.937 7.85816 178.914 7.99171L178.883 8.19234V8.78601L178.913 8.91197C178.932 8.99298 178.955 9.07273 178.983 9.15057C179.008 9.2183 179.039 9.28539 179.075 9.34931C179.114 9.4126 179.157 9.4702 179.207 9.52463C179.264 9.58286 179.326 9.63729 179.389 9.68665C179.456 9.73349 179.53 9.77716 179.605 9.81134L179.723 9.8645L179.886 9.90374C179.976 9.9259 180.11 9.95184 180.188 9.96197C180.264 9.97147 180.424 9.98033 180.544 9.98159V9.99425H180.542V9.99488ZM180.916 7.19233C180.365 7.19233 179.915 7.18854 179.915 7.18347C179.915 7.17841 179.939 7.10942 179.968 7.02967C179.996 6.94993 180.047 6.83094 180.079 6.76512L180.143 6.64613L180.275 6.51511L180.406 6.3841L180.533 6.32081C180.599 6.2879 180.67 6.26068 180.74 6.23853C180.833 6.22207 180.926 6.21068 181.019 6.20562L181.216 6.19233L181.37 6.21195L181.522 6.23157L181.633 6.2822L181.744 6.33347L181.809 6.39676C181.843 6.43347 181.873 6.47271 181.898 6.51575L181.926 6.56828L181.944 6.68474L181.962 6.80246L181.94 6.99613L181.92 7.19043L180.916 7.19233ZM174.996 11.7493L175.009 11.7183C175.018 11.6886 175.022 11.6576 175.021 11.6265C175.021 11.5943 175.035 11.4772 175.054 11.3658C175.071 11.2544 175.111 10.9962 175.145 10.7962C175.178 10.5962 175.225 10.2892 175.252 10.1202C175.28 9.94931 175.302 9.79868 175.325 9.63792C175.329 9.57779 175.34 9.51893 175.361 9.46513C175.387 9.49235 175.409 9.52463 175.426 9.55754L175.475 9.65121L175.586 9.7626L175.697 9.874L175.832 9.92843L175.968 9.98286L176.13 10.0025L176.293 10.0234L176.497 10.0101L176.702 9.99678L176.926 9.93855L177.149 9.88096L177.268 9.82653C177.357 9.78412 177.443 9.73412 177.526 9.68159L177.666 9.58919L177.792 9.45944C177.873 9.37906 177.947 9.29488 178.016 9.2069C178.052 9.16576 178.082 9.1183 178.109 9.07209C178.124 9.03791 178.144 9.00627 178.166 8.97779C178.219 8.88665 178.265 8.79361 178.307 8.69614C178.354 8.58601 178.426 8.39044 178.469 8.25943L178.546 8.02082L178.585 7.81386C178.606 7.69993 178.635 7.51196 178.649 7.39613L178.673 7.18537L178.659 7.00626L178.646 6.82714L178.606 6.64803L178.566 6.46954L178.499 6.33537L178.433 6.20119L178.302 6.06385L178.173 5.92587L177.868 5.76701L177.697 5.7265L177.527 5.68599L177.357 5.67334L177.188 5.66068L176.997 5.6822L176.807 5.70372L176.654 5.74296L176.501 5.7822L176.366 5.84549C176.285 5.88346 176.206 5.92524 176.129 5.97207C176.084 5.99992 176.038 6.03157 175.999 6.06511C175.974 6.08853 175.947 6.10942 175.918 6.12904L175.867 6.16321L175.904 5.98789C175.924 5.89169 175.942 5.80245 175.942 5.78916V5.76384H175.214L175.15 6.16638C175.113 6.3879 175.057 6.73031 175.024 6.92588C174.952 7.36069 174.879 7.7955 174.805 8.22842C174.771 8.41892 174.717 8.72399 174.686 8.90437C174.655 9.08475 174.604 9.34804 174.578 9.49172C174.551 9.63539 174.502 9.90184 174.468 10.0873C174.428 10.3063 174.387 10.524 174.346 10.7449C174.307 10.9481 174.268 11.1538 174.227 11.3607C174.195 11.5253 174.163 11.6772 174.157 11.7044L174.145 11.7487H174.996V11.7493ZM176.244 9.45817L176.136 9.43982L176.027 9.42083L175.917 9.37083L175.807 9.3202L175.73 9.24614L175.652 9.17462L175.608 9.07462C175.58 9.0088 175.556 8.93981 175.54 8.86956L175.514 8.76196L175.525 8.59044L175.536 8.41892L175.587 8.14993C175.626 7.94487 175.663 7.73981 175.7 7.53347C175.735 7.3436 175.785 7.06132 175.814 6.91005L175.867 6.63473L175.982 6.5398C176.051 6.48284 176.126 6.4303 176.204 6.3841L176.311 6.32081L176.451 6.2784L176.59 6.23473L176.948 6.21385L177.093 6.24486L177.238 6.27587L177.341 6.32334L177.444 6.37081L177.532 6.45752L177.618 6.54423L177.664 6.636C177.698 6.70689 177.725 6.78031 177.744 6.85562L177.778 6.98221L177.768 7.36195L177.757 7.7417L177.706 7.96512C177.678 8.08791 177.625 8.27588 177.587 8.38285L177.521 8.57715L177.437 8.73538C177.39 8.82526 177.338 8.91197 177.281 8.99488C177.239 9.055 177.189 9.10943 177.136 9.1569C177.091 9.19614 177.044 9.23475 176.994 9.27273L176.92 9.32716L176.583 9.44298L176.252 9.46197L176.244 9.45817Z" fill="white"></path><path d="M125.03 3.83422C125.464 3.68928 125.916 3.61585 126.373 3.61712C128.391 3.61585 130.132 5.03678 130.531 7.01464L133.443 6.42097C132.758 3.06209 129.804 0.648736 126.376 0.64747C125.599 0.646205 124.83 0.771545 124.094 1.01901L125.033 3.83484L125.03 3.83422Z" fill="white"></path><path d="M121.597 13.264L123.563 11.0354C122.653 10.231 122.131 9.07091 122.134 7.85571C122.131 6.64115 122.651 5.48418 123.563 4.68101L121.597 2.45947C120.048 3.8272 119.162 5.79558 119.164 7.86205C119.164 9.92852 120.05 11.895 121.597 13.264Z" fill="white"></path><path d="M130.531 8.71046C130.127 10.6845 128.388 12.1022 126.373 12.0997C125.914 12.101 125.46 12.0282 125.024 11.8833L124.083 14.6991C124.821 14.9466 125.596 15.0712 126.373 15.07C129.8 15.0712 132.754 12.6592 133.441 9.30351L130.528 8.70923L130.531 8.71046Z" fill="white"></path><path d="M143.13 10.702C142.64 11.1881 141.972 11.4546 141.28 11.4445C140.806 11.4388 140.344 11.2995 139.944 11.0419L138.98 12.5767C139.663 13.0077 140.452 13.2406 141.26 13.2507C142.433 13.2666 143.564 12.8172 144.404 11.9995L143.138 10.6988H143.132L143.13 10.702ZM141.385 4.44563C138.957 4.41082 136.958 6.3488 136.917 8.7773C136.903 9.65262 137.149 10.5128 137.629 11.2457L145.599 7.83426C145.136 5.87475 143.4 4.47854 141.385 4.44563ZM138.744 9.1235C138.731 9.02097 138.727 8.91723 138.727 8.81469C138.749 7.3843 139.927 6.24312 141.356 6.26464C142.106 6.2735 142.814 6.61087 143.293 7.18682L138.744 9.1235ZM148.106 2.4646V10.9603L149.579 11.5736L148.882 13.2507L147.422 12.6438C147.127 12.5166 146.878 12.3065 146.703 12.0381C146.506 11.723 146.408 11.3571 146.418 10.9862V2.46529L148.106 2.4646ZM153.422 6.39374C153.689 6.30703 153.965 6.26466 154.246 6.26719C155.476 6.26719 156.537 7.13367 156.783 8.34001L158.56 7.9748C158.142 5.92605 156.339 4.45453 154.248 4.4539C153.775 4.4539 153.305 4.52917 152.856 4.67664L153.425 6.39691L153.422 6.39374ZM151.326 12.1425L152.527 10.7875C151.97 10.2957 151.652 9.58748 151.655 8.84444C151.654 8.10519 151.972 7.39819 152.527 6.90768L151.326 5.55199C150.381 6.38744 149.839 7.58875 149.84 8.85016C149.839 10.1084 150.38 11.3078 151.326 12.1407V12.1425ZM156.784 9.37104C156.536 10.5755 155.477 11.4413 154.246 11.4432C153.967 11.4425 153.689 11.397 153.424 11.3065L152.848 13.028C153.298 13.1793 153.77 13.2571 154.246 13.2558C156.339 13.2558 158.139 11.7849 158.558 9.73556L156.784 9.37104Z" fill="white"></path><path d="M219.607 0.563177H216.182C212.213 0.477733 208.925 3.62653 208.839 7.59617C208.836 7.70503 208.836 7.81389 208.839 7.92275C208.878 11.9443 212.16 15.1766 216.182 15.1557H219.607C223.587 15.1741 227.219 11.9032 227.219 7.92275C227.175 3.81197 223.805 0.516308 219.695 0.561245C219.667 0.561878 219.637 0.562544 219.607 0.563177ZM216.203 14.5392C212.519 14.5342 209.536 11.5456 209.539 7.86009C209.536 4.17526 212.519 1.18533 216.203 1.17964C219.888 1.1847 222.872 4.17463 222.867 7.86009C222.872 11.5449 219.888 14.5354 216.203 14.5392Z" fill="white"></path><path d="M211.991 7.84146C211.994 9.59147 213.07 11.1604 214.703 11.7915V3.89014C213.07 4.52115 211.993 6.09081 211.991 7.84146Z" fill="white"></path><path d="M217.726 3.89087V11.7947C219.359 11.1643 220.437 9.59275 220.439 7.84211C220.437 6.09147 219.359 4.52125 217.726 3.89087Z" fill="white"></path><path d="M101.091 3.14547L100.413 4.71957H101.772L101.091 3.14547ZM93.2651 4.12142C93.4 4.04547 93.4791 3.89927 93.4683 3.74547C93.4784 3.59737 93.3962 3.45876 93.2614 3.3961C93.1133 3.33724 92.9538 3.31323 92.7949 3.32525H91.5816V4.20246H92.7791C92.9474 4.21892 93.1152 4.19104 93.2677 4.12142H93.2651ZM77.7188 3.14547L77.0473 4.71957H78.3929L77.7188 3.14547ZM108.934 13.2322H107.031V12.3854H108.926C109.067 12.4012 109.208 12.3683 109.325 12.2867C109.399 12.2221 109.443 12.1285 109.443 12.0298C109.447 11.9285 109.403 11.831 109.323 11.7689C109.222 11.6987 109.099 11.6677 108.976 11.681C108.051 11.65 106.897 11.7082 106.897 10.4569C106.897 9.88728 107.278 9.28163 108.31 9.28163H110.273V8.4955H108.449C108.014 8.47462 107.584 8.58733 107.217 8.81961V8.4955H104.519C104.102 8.47272 103.689 8.58606 103.342 8.81961V8.4955H98.5266V8.81961C98.1183 8.59682 97.6614 8.48601 97.1962 8.4955H94.0183V8.81961C93.6012 8.56898 93.1145 8.455 92.6303 8.4955H89.0746L88.2613 9.33988L87.5025 8.4955H82.1898V14.0076H87.3999L88.2379 13.1507L89.0278 14.0076H92.2392V12.7107H92.5557C93.0215 12.7392 93.4892 12.6734 93.9278 12.5164V14.0051H96.5784V12.5677H96.7038C96.8671 12.5677 96.8816 12.5753 96.8816 12.731V14.0069H104.932C105.404 14.0253 105.87 13.9019 106.272 13.6519V14.0069H108.825C109.318 14.0215 109.811 13.9392 110.27 13.7551V12.7278C109.931 13.1012 109.434 13.2905 108.932 13.2336H108.934V13.2322ZM92.598 11.931H91.3683V13.2564H89.4544L88.2411 11.95L86.9803 13.2564H83.0771V9.30697H87.0404L88.2525 10.6018L89.505 9.30697H92.6537C93.4348 9.30697 94.3133 9.51327 94.3133 10.6101C94.3133 11.7044 93.4588 11.9342 92.598 11.9342H92.5993L92.598 11.931ZM98.5095 11.7512C98.6449 11.9652 98.7025 12.2196 98.6734 12.4722V13.2544H97.6848V12.7601C97.6848 12.5228 97.7088 12.1703 97.5259 11.9874C97.3171 11.8367 97.0582 11.7747 96.8019 11.8133H95.7493V13.2544H94.762V9.30504H97.0367C97.4424 9.27023 97.8475 9.33476 98.2222 9.49046C98.5519 9.65565 98.7513 10.0013 98.7291 10.3684C98.7386 10.8298 98.4601 11.2474 98.0323 11.419C98.2209 11.4835 98.388 11.5968 98.5145 11.75L98.5095 11.7512ZM102.58 10.1221H100.272V10.8405H102.523V11.6462H100.272V12.4323L102.58 12.4361V13.2557H99.2886V9.30504H102.58V10.1221ZM105.111 13.2557H103.192V12.4089H105.104C105.247 12.4234 105.389 12.3905 105.508 12.3101C105.581 12.2443 105.625 12.1519 105.625 12.0532C105.626 11.9532 105.582 11.8564 105.505 11.7924C105.402 11.7234 105.279 11.6924 105.154 11.7044C104.232 11.6734 103.079 11.7316 103.079 10.4816C103.079 9.90821 103.455 9.30627 104.488 9.30627H106.464V10.1455H104.658C104.522 10.131 104.384 10.1557 104.263 10.2183C104.164 10.2766 104.105 10.3867 104.116 10.4999C104.114 10.6354 104.203 10.7544 104.331 10.7943C104.456 10.8316 104.585 10.8462 104.714 10.8399L105.245 10.8532C105.646 10.8152 106.048 10.9298 106.37 11.1696C106.584 11.3937 106.691 11.6987 106.665 12.0057C106.66 12.8588 106.106 13.2557 105.111 13.2557ZM97.4696 10.1867C97.3215 10.1246 97.1607 10.1006 97 10.1152H95.7867V11.0006H96.9848C97.1519 11.0145 97.3183 10.9874 97.4715 10.919C97.6044 10.8393 97.6829 10.6936 97.6759 10.5386C97.6848 10.3905 97.6044 10.2506 97.4715 10.1829L97.4696 10.1867ZM108.479 10.1152C108.342 10.1006 108.203 10.1253 108.08 10.1867C107.983 10.2461 107.927 10.3563 107.936 10.4702C107.932 10.6056 108.021 10.7266 108.151 10.7652C108.274 10.8 108.402 10.8145 108.532 10.8082L109.067 10.8227C109.467 10.7835 109.865 10.8955 110.186 11.1392C110.221 11.1677 110.251 11.2 110.278 11.2355V10.112H108.482L108.479 10.1152ZM92.6322 10.1152H91.3487V11.1215H92.6221C93.0025 11.1215 93.2367 10.9411 93.2367 10.6012C93.2367 10.2601 92.9911 10.1139 92.6367 10.1139L92.6322 10.1152ZM84.0581 10.1152V10.8336H86.2208V11.6392H84.0581V12.4246H86.4809L87.6056 11.2658L86.5297 10.1152H84.0581ZM90.3841 12.8779V9.71328L88.8708 11.2708L90.3841 12.8791V12.8779ZM84.141 6.53479V7.21515H92.3734L92.3689 5.77525H92.5284C92.6411 5.77905 92.6734 5.78857 92.6734 5.96515V7.21577H96.9316V6.8803C97.4259 7.11448 97.9684 7.22906 98.5139 7.21577H100.305L100.688 6.33794H101.539L101.914 7.21577H105.365V6.38282L105.887 7.21515H108.653V1.70881H105.917V2.35942L105.534 1.70881H102.725V2.35942L102.373 1.70881H98.5791C98.012 1.68223 97.4487 1.79232 96.9323 2.03029V1.70881H94.3139V2.03029C93.9924 1.79358 93.5987 1.6797 93.2006 1.70881H83.636L82.9936 3.13156L82.3341 1.70881H79.3214V2.35942L78.991 1.70881H76.4214L75.2271 4.32778V6.42277L76.9916 2.47338H78.4549L80.1296 6.21324V2.47338H81.7378L83.0271 5.15245L84.2119 2.47338H85.8531V6.42277H84.8398L84.8354 3.32965L83.4069 6.42277H82.5448L81.1119 3.32718V6.42277H79.1087L78.7277 5.54239H76.6771L76.2967 6.42277H75.2283V7.2177H76.9112L77.2923 6.34048H78.1429L78.5233 7.2177H81.8353V6.54615L82.1309 7.22025H83.8512L84.1474 6.53603L84.141 6.53479ZM97.1158 2.93223C97.5341 2.58729 98.0728 2.42146 98.612 2.47083H99.5658V3.31698H98.6316C98.3557 3.28344 98.081 3.36888 97.8728 3.55116C97.6671 3.80179 97.5658 4.12272 97.5892 4.44614C97.5601 4.77842 97.6563 5.10942 97.862 5.37334C98.0576 5.52587 98.3013 5.59867 98.5487 5.57715H98.9905L100.379 2.47145H101.856L103.523 6.20567V2.47145H105.023L106.755 5.22207V2.47145H107.765V6.42084H106.368L104.501 3.45628V6.42084H102.495L102.112 5.53984H100.067L99.6949 6.42084H98.5418C98.0279 6.45248 97.5221 6.29744 97.1133 5.98478C96.7304 5.58098 96.538 5.03156 96.5873 4.47712C96.5399 3.9113 96.7316 3.35185 97.1158 2.93223ZM95.0905 2.47145H96.0905V6.42084H95.0854L95.0905 2.47145ZM90.5575 2.47145H92.824C93.2323 2.43284 93.6417 2.49806 94.017 2.66135C94.3443 2.82718 94.5392 3.17082 94.5158 3.53602C94.5247 3.99741 94.2468 4.41636 93.8183 4.58915C94.0076 4.65497 94.1747 4.76956 94.3063 4.92083C94.4436 5.13602 94.5019 5.39235 94.4702 5.64615V6.42207H93.4759L93.4727 5.92397C93.5126 5.65752 93.4588 5.38475 93.3171 5.155C93.1088 5.0088 92.8519 4.94744 92.5987 4.98542H91.5405V6.42207H90.555V2.47268L90.5575 2.47145ZM86.586 2.47145H89.8765V3.29427H87.5696V4.0063H89.8215V4.81575H87.5696V5.60435H89.8765V6.42084H86.586V2.47145Z" fill="white"></path><path d="M293.427 3.17671C293.045 2.69823 292.465 2.45898 291.687 2.45898C290.911 2.45898 290.331 2.69823 289.949 3.17671C289.567 3.65456 289.378 4.21976 289.378 4.87166C289.378 5.53559 289.569 6.10268 289.949 6.5742C290.332 7.04509 290.912 7.2818 291.687 7.2818C292.465 7.2818 293.046 7.04509 293.427 6.5742C293.809 6.10268 294 5.53495 294 4.87166C294 4.21976 293.809 3.65456 293.427 3.17671ZM292.48 5.92103C292.294 6.16724 292.03 6.28939 291.683 6.28939C291.337 6.28939 291.07 6.16724 290.884 5.92103C290.697 5.67483 290.604 5.32483 290.604 4.87166C290.604 4.41976 290.697 4.06975 290.884 3.82608C291.07 3.58114 291.337 3.45899 291.683 3.45899C292.03 3.45899 292.294 3.58114 292.48 3.82608C292.665 4.07039 292.758 4.41976 292.758 4.87166C292.759 5.32483 292.665 5.67483 292.48 5.92103Z" fill="white"></path><path d="M283.67 2.77541C283.285 2.57984 282.84 2.48047 282.34 2.48047C281.574 2.48047 281.033 2.68047 280.718 3.07984C280.521 3.33554 280.41 3.66149 280.385 4.05769H281.529C281.558 3.88301 281.615 3.74377 281.699 3.64187C281.818 3.50326 282.019 3.43364 282.302 3.43364C282.555 3.43364 282.747 3.46908 282.878 3.53997C283.009 3.61022 283.076 3.7387 283.076 3.92478C283.076 4.07795 282.989 4.18934 282.819 4.26213C282.724 4.30327 282.566 4.33808 282.345 4.36656L281.938 4.41592C281.477 4.47415 281.128 4.57162 280.89 4.7077C280.455 4.95833 280.24 5.36087 280.24 5.9191C280.24 6.34885 280.374 6.68176 280.645 6.91594C280.915 7.15012 281.257 7.24822 281.668 7.26784C284.259 7.38303 284.229 5.90328 284.254 5.59505V3.89187C284.251 3.34566 284.056 2.97351 283.67 2.77541ZM283.067 5.3615C283.058 5.75834 282.947 6.03239 282.726 6.18113C282.508 6.33113 282.269 6.40644 282.01 6.40644C281.847 6.40644 281.708 6.36151 281.594 6.271C281.479 6.18049 281.423 6.03429 281.423 5.83176C281.423 5.60391 281.516 5.43618 281.703 5.32796C281.814 5.26466 281.995 5.21023 282.247 5.16656L282.518 5.11656C282.654 5.09061 282.759 5.0634 282.836 5.03428C282.915 5.0058 282.989 4.96783 283.066 4.92036L283.067 5.3615Z" fill="white"></path><path d="M277.765 3.49624C278.061 3.49624 278.278 3.58738 278.418 3.76966C278.515 3.90511 278.575 4.05764 278.598 4.22663H279.876C279.807 3.58232 279.58 3.13232 279.201 2.87725C278.818 2.62409 278.33 2.49561 277.732 2.49561C277.028 2.49561 276.476 2.71143 276.077 3.14308C275.676 3.57473 275.477 4.17853 275.477 4.95448C275.477 5.6412 275.657 6.20196 276.02 6.63361C276.38 7.06462 276.946 7.28108 277.714 7.28108C278.482 7.28108 279.062 7.02158 279.453 6.50386C279.699 6.1836 279.835 5.8431 279.863 5.48297H278.591C278.565 5.72031 278.491 5.91462 278.366 6.06398C278.244 6.21335 278.037 6.28804 277.745 6.28804C277.334 6.28804 277.051 6.10069 276.904 5.72284C276.821 5.52221 276.781 5.25638 276.781 4.92474C276.781 4.57726 276.821 4.29878 276.904 4.08802C277.055 3.69371 277.343 3.49624 277.765 3.49624Z" fill="white"></path><path d="M275.131 2.49561C272.507 2.49561 272.664 4.81904 272.664 4.81904V7.17918H273.855V4.96588C273.855 4.60321 273.901 4.33486 273.991 4.15954C274.155 3.85005 274.473 3.69561 274.952 3.69561C274.988 3.69561 275.035 3.69751 275.093 3.70004C275.151 3.70321 275.216 3.70827 275.291 3.71713V2.50447C275.239 2.50067 275.204 2.4994 275.191 2.4975C275.173 2.49624 275.154 2.49561 275.131 2.49561Z" fill="white"></path><path d="M270.758 5.94626C270.708 6.01715 270.654 6.07854 270.593 6.12664C270.425 6.26525 270.196 6.30766 269.927 6.30766C269.673 6.30766 269.473 6.26842 269.294 6.15512C268.996 5.97221 268.829 5.66398 268.811 5.20955H272.106C272.111 4.81904 272.096 4.51967 272.067 4.31207C272.012 3.95764 271.893 3.64498 271.708 3.37662C271.503 3.07219 271.242 2.84877 270.927 2.707C270.611 2.56649 270.256 2.49561 269.863 2.49561C269.198 2.49561 268.661 2.70447 268.244 3.12282C267.829 3.54118 267.622 4.14182 267.622 4.92537C267.622 5.76145 267.851 6.36525 268.313 6.73677C268.773 7.10766 269.303 7.29311 269.906 7.29311C270.635 7.29311 271.203 7.07285 271.607 6.63297C271.827 6.40133 271.963 6.17221 272.019 5.94689L270.758 5.94626ZM269.156 3.72916C269.324 3.55764 269.56 3.47093 269.862 3.47093C270.14 3.47093 270.376 3.55194 270.563 3.71523C270.751 3.87726 270.856 4.11587 270.877 4.4298H268.84C268.885 4.13422 268.99 3.90194 269.156 3.72916Z" fill="white"></path><path d="M267.142 7.1786H266.054V4.43998C266.054 4.18934 265.971 3.59503 265.254 3.59503C264.775 3.59503 264.429 3.93997 264.429 4.43998V7.1786H263.339V4.43998C263.339 4.18934 263.264 3.59503 262.547 3.59503C262.06 3.59503 261.722 3.93997 261.722 4.43998V7.1786H260.633V4.46656C260.633 3.3349 261.384 2.48047 262.545 2.48047C263.123 2.48047 263.592 2.72288 263.9 3.11149C264.221 2.72288 264.699 2.48047 265.252 2.48047C266.439 2.48047 267.138 3.30073 267.138 4.46656V7.1786H267.142Z" fill="white"></path><path d="M289.022 1.0652C289.022 1.0652 287.823 0.937347 287.823 1.90064L287.822 3.17597C287.689 2.96268 287.517 2.79559 287.304 2.67597C287.091 2.55571 286.848 2.49495 286.573 2.49495C285.979 2.49495 285.504 2.71647 285.149 3.15888C284.793 3.60192 284.615 4.2399 284.615 5.01142C284.615 5.68105 284.795 6.22979 285.156 6.65764C285.516 7.08486 286.225 7.2722 286.854 7.2722C289.047 7.2722 289.022 5.39181 289.022 5.39181L289.022 1.0652ZM287.594 5.92978C287.42 6.17915 287.165 6.30384 286.83 6.30384C286.496 6.30384 286.246 6.17789 286.082 5.92789C285.916 5.67725 285.834 5.31269 285.834 4.89433C285.834 4.50762 285.914 4.18294 286.076 3.92154C286.239 3.66015 286.491 3.52914 286.837 3.52914C287.064 3.52914 287.263 3.60129 287.435 3.74496C287.714 3.98294 287.854 4.41015 287.854 4.96269C287.856 5.35826 287.769 5.68105 287.594 5.92978Z" fill="white"></path><path d="M269.333 14.735C269.333 14.8964 269.272 15.035 269.157 15.1489C269.039 15.2647 268.901 15.3211 268.737 15.3211H268.143V11.1843C268.143 10.3793 268.415 9.87482 268.862 9.53495C269.157 9.31089 269.596 9.0957 270.42 9.0957C270.976 9.0957 271.626 9.31216 271.978 9.74191C272.373 10.2242 272.538 10.7615 272.538 11.4641C272.538 12.1894 272.364 12.7755 272.013 13.2255C271.663 13.6635 271.213 13.8818 270.665 13.8818C270.373 13.8818 270.116 13.8299 269.894 13.7274C269.66 13.6103 269.475 13.4331 269.335 13.19L269.333 14.735ZM271.328 11.5134C271.328 11.0634 271.241 10.7185 271.065 10.4761C270.891 10.2337 270.639 10.1128 270.313 10.1128C269.999 10.1128 269.753 10.2337 269.577 10.4761C269.415 10.6951 269.334 11.0413 269.334 11.5134C269.334 11.9508 269.42 12.2786 269.596 12.4976C269.769 12.7407 270.022 12.8609 270.348 12.8609C270.651 12.8609 270.889 12.7407 271.065 12.4976C271.241 12.2565 271.328 11.9293 271.328 11.5134Z" fill="white"></path><path d="M280.426 13.4988V13.2064C280.22 13.5292 279.941 13.7279 279.593 13.8096C279.242 13.8899 278.895 13.8615 278.552 13.7229C278.208 13.5842 277.912 13.3298 277.667 12.9539C277.42 12.5785 277.299 12.0887 277.299 11.4792C277.299 10.7652 277.461 10.1874 277.787 9.74371C278.115 9.3013 278.639 9.09814 279.36 9.07978C280.072 9.06143 280.484 9.22219 280.89 9.52852C281.333 9.86333 281.595 10.3804 281.595 11.1842V13.6203C281.597 14.395 281.055 15.8305 279.36 15.7083C278.31 15.633 277.726 15.2013 277.399 14.2235H278.653C278.746 14.3843 278.886 14.5077 279.075 14.5944C279.263 14.6811 279.455 14.7045 279.642 14.6627C279.832 14.6235 280.003 14.5096 280.159 14.3273C280.313 14.1437 280.401 13.8672 280.426 13.4988ZM278.465 11.514C278.465 12.3077 278.694 12.7475 279.153 12.8342C279.611 12.9203 279.949 12.814 280.168 12.5152C280.271 12.3893 280.345 12.1887 280.393 11.9209C280.438 11.6501 280.442 11.3817 280.401 11.1171C280.362 10.8526 280.267 10.6152 280.118 10.4089C279.971 10.2026 279.753 10.0988 279.467 10.0988C279.076 10.0988 278.814 10.2437 278.676 10.5304C278.532 10.8184 278.465 11.1456 278.465 11.514Z" fill="white"></path><path d="M276.278 9.40759C275.891 9.21202 275.448 9.11328 274.948 9.11328C274.181 9.11328 273.642 9.31202 273.326 9.71075C273.129 9.96582 273.017 10.2924 272.991 10.6905H274.138C274.167 10.5152 274.222 10.3766 274.307 10.274C274.426 10.1354 274.626 10.0665 274.91 10.0665C275.164 10.0665 275.355 10.1019 275.486 10.1715C275.616 10.243 275.683 10.3715 275.683 10.5582C275.683 10.7082 275.598 10.8228 275.428 10.8943C275.333 10.9348 275.176 10.9703 274.953 10.9981L274.546 11.0481C274.085 11.1063 273.736 11.2032 273.5 11.3399C273.064 11.5905 272.85 11.9918 272.85 12.5506C272.85 12.9804 272.983 13.3127 273.254 13.5469C273.522 13.7804 273.865 13.8791 274.278 13.8994C276.867 14.0158 276.838 12.5361 276.862 12.2253V10.5228C276.859 9.97784 276.665 9.60696 276.278 9.40759ZM275.676 11.9937C275.669 12.3918 275.557 12.6646 275.337 12.8146C275.119 12.9639 274.88 13.0393 274.621 13.0393C274.457 13.0393 274.319 12.9937 274.205 12.9032C274.091 12.812 274.033 12.6671 274.033 12.4646C274.033 12.2374 274.126 12.069 274.312 11.9614C274.424 11.8956 274.604 11.8424 274.857 11.7994L275.127 11.7487C275.262 11.7228 275.369 11.6956 275.445 11.6658C275.524 11.6386 275.599 11.6 275.674 11.5519L275.676 11.9937Z" fill="white"></path><path d="M286.099 9.7835C285.717 9.30502 285.136 9.06641 284.359 9.06641C283.582 9.06641 283.003 9.30502 282.62 9.7835C282.238 10.262 282.049 10.8265 282.049 11.4797C282.049 12.1436 282.24 12.7101 282.62 13.1823C283.003 13.6512 283.583 13.8886 284.359 13.8886C285.137 13.8886 285.717 13.6512 286.099 13.1823C286.481 12.7101 286.67 12.143 286.67 11.4797C286.671 10.8265 286.481 10.262 286.099 9.7835ZM285.152 12.5278C284.967 12.774 284.702 12.8968 284.356 12.8968C284.01 12.8968 283.743 12.774 283.556 12.5278C283.369 12.2816 283.277 11.9335 283.277 11.4797C283.277 11.0272 283.37 10.6778 283.556 10.4341C283.743 10.1892 284.01 10.067 284.356 10.067C284.702 10.067 284.967 10.1892 285.152 10.4341C285.337 10.6797 285.43 11.0278 285.43 11.4797C285.431 11.9335 285.337 12.2816 285.152 12.5278Z" fill="white"></path><path d="M256.898 5.52027C256.305 4.32532 255.359 3.44494 254.234 2.7405C254.058 2.63038 253.985 2.54746 254.084 2.33544C254.211 2.05949 254.108 1.83417 253.816 1.72467C253.66 1.66645 253.639 1.59429 253.715 1.45822C253.827 1.26075 253.751 1.11328 253.59 0.967707C253.208 0.621502 252.752 0.383526 252.332 0.0930176C252.197 0.0930176 252.062 0.0930176 251.926 0.0930176C251.779 0.163271 251.605 0.176562 251.481 0.304411C251.271 0.518337 251.01 0.679097 250.807 0.902517C250.667 1.05695 250.507 1.10505 250.295 1.05821C249.519 0.883529 248.734 0.78163 247.939 0.714541C246.36 0.580995 244.807 0.713275 243.272 1.06707C242.862 1.16201 242.579 1.11581 242.297 0.799351C242.05 0.524033 241.821 0.206942 241.431 0.0936505C241.274 0.0936505 241.117 0.0936505 240.96 0.0936505C240.529 0.241753 240.182 0.521501 239.839 0.80125C239.671 0.937327 239.567 1.131 239.547 1.34492C239.53 1.5367 239.445 1.67024 239.302 1.79366C239.136 1.93797 238.972 2.15885 239.127 2.3405C239.396 2.65443 239.181 2.75379 238.965 2.8943C238.834 2.97911 238.712 3.07532 238.588 3.17152C237.344 4.14747 236.333 5.81964 236.183 6.92281C236.053 7.88547 236.008 9.10257 236.867 10.7469C237.53 12.014 239.435 13.6374 241.315 14.3393C244.27 15.4381 247.307 15.5349 250.373 14.9026C252.392 14.488 254.21 13.6615 255.679 12.1735C257.407 10.4146 257.941 7.62218 256.898 5.52027ZM254.233 3.21076C255.311 4.02279 256.26 4.91394 256.729 6.20698C256.79 6.37281 256.828 6.54496 256.882 6.71331C256.966 6.97407 256.829 7.08927 256.6 7.04496C254.929 6.72471 253.369 7.25762 251.788 7.62851C251.44 7.71016 251.102 7.83104 250.764 7.94623C250.382 8.07535 250.382 8.08041 250.39 7.56395C250.519 6.70699 250.338 5.71774 250.508 4.74305C250.584 4.30634 250.743 3.89368 250.891 3.47722C250.943 3.33165 251.029 3.25823 251.191 3.27911C251.598 3.32975 251.972 3.22215 252.322 3.03544C253.003 2.67088 253.6 2.73417 254.233 3.21076ZM250.325 1.581C248.502 3.67722 247.912 6.3304 246.66 8.72029C246.317 7.95636 245.993 7.23927 245.67 6.52091C245.267 5.62407 244.858 4.73039 244.46 3.83102C244.11 3.03987 243.72 2.27468 243.041 1.63607C245.474 1.06264 247.853 1.05188 250.325 1.581ZM236.71 6.66711C237.052 5.34052 237.872 4.35381 238.934 3.52912C238.961 3.50823 238.989 3.49051 239.015 3.46899C239.653 2.90633 240.325 2.58544 241.172 3.07658C241.42 3.21962 241.729 3.2443 242.02 3.24937C242.288 3.2538 242.405 3.38355 242.502 3.61772C242.878 4.52849 242.976 5.47153 242.897 6.36711C242.91 6.89306 242.877 7.34623 242.937 7.79623C242.949 7.88041 243.016 7.98231 242.934 8.0437C242.848 8.10573 242.739 8.05953 242.649 8.01712C241.956 7.69876 241.217 7.52028 240.485 7.31965C239.347 7.00699 238.182 7.02281 237.019 7.04939C236.692 7.05762 236.629 6.98104 236.71 6.66711ZM237.61 10.4735C236.907 9.58738 236.62 8.56333 236.578 7.45636C236.57 7.27914 236.67 7.28927 236.787 7.2899C237.18 7.29053 237.571 7.2899 237.888 7.2899C239.574 7.24749 241.086 7.65889 242.558 8.25003C242.699 8.30573 242.836 8.33168 242.985 8.31965C243.193 8.30573 243.289 8.21965 243.238 8.00066C243.093 7.3918 243.115 6.77154 243.156 6.15635C243.221 5.20065 243.048 4.29178 242.689 3.40886C242.597 3.18291 242.445 3.02278 242.2 3.01772C241.66 3.00633 241.168 2.82278 240.672 2.65379C240.364 2.54873 240.051 2.46582 239.728 2.43037C239.576 2.41392 239.469 2.34113 239.425 2.21202C239.387 2.10379 239.484 2.02721 239.57 1.97657C239.689 1.90632 239.801 1.881 239.934 1.98797C240.286 2.26835 240.674 2.40759 241.113 2.18607C241.236 2.12468 241.269 2.21708 241.33 2.27531C241.481 2.42025 241.621 2.58101 241.805 2.69367C241.877 2.73924 241.95 2.77468 242.012 2.69873C242.075 2.62405 242.041 2.55189 241.967 2.50126C241.541 2.21392 241.27 1.78797 240.958 1.39936C240.898 1.32594 240.839 1.20315 240.721 1.2829C240.578 1.381 240.708 1.47341 240.762 1.56075C240.779 1.5886 240.806 1.61138 240.822 1.6405C240.874 1.74809 241.069 1.82531 240.971 1.95695C240.885 2.07594 240.707 2.05885 240.562 2.02784C240.312 1.97468 240.111 1.83607 239.941 1.65758C239.803 1.51265 239.834 1.35062 239.942 1.20442C240.235 0.808845 240.678 0.601249 241.087 0.355678C241.224 0.272766 241.364 0.369602 241.472 0.47783C241.96 0.948719 242.46 1.41138 242.939 1.88923C243.426 2.37278 243.777 2.9443 244.057 3.56709C244.862 5.35951 245.685 7.14243 246.471 8.94118C246.589 9.21017 246.657 9.59624 246.548 9.83928C246.42 10.1235 246.103 10.3475 245.743 10.4374C245.141 10.5906 244.52 10.5722 243.91 10.626C242.157 10.7798 240.42 10.6095 238.701 10.2741C238.387 10.2114 238.117 10.2583 237.909 10.4988C237.778 10.6551 237.704 10.5906 237.61 10.4735ZM255.222 11.2089C253.992 12.3621 252.508 13.0684 250.886 13.4956C247.572 14.3703 244.306 14.2425 241.115 12.9494C240.019 12.5058 239.026 11.8874 238.186 11.0532C238.107 10.9735 237.946 10.9064 238.012 10.769C238.077 10.6273 238.212 10.5222 238.38 10.5108C238.5 10.4994 238.626 10.5171 238.744 10.5406C240.021 10.7988 241.314 10.9374 242.613 10.9311C243.562 10.9273 244.512 10.8387 245.459 10.7519C245.966 10.7083 246.403 10.4836 246.717 10.0266C247.11 10.6203 247.714 10.7519 248.356 10.8057C250.45 10.9773 252.536 11.0444 254.597 10.5273C254.724 10.4956 254.867 10.4956 254.997 10.5165C255.206 10.5513 255.383 10.6868 255.464 10.8633C255.546 11.0349 255.324 11.114 255.222 11.2089ZM255.565 10.5722C255.284 10.2754 254.938 10.188 254.524 10.288C252.372 10.8171 250.194 10.738 248.014 10.5121C247.61 10.4703 247.255 10.319 247.007 9.98296C246.756 9.64055 246.66 9.29308 246.875 8.87662C247.542 7.58041 248.05 6.21268 248.626 4.8728C249.31 3.27975 250.224 1.84176 251.561 0.691756C252.067 0.25631 252.102 0.249348 252.653 0.608211C252.886 0.760111 253.112 0.924036 253.34 1.0829C253.491 1.18796 253.517 1.30695 253.436 1.47974C253.212 1.96392 252.914 2.0905 252.332 1.91202C252.45 1.73417 252.564 1.56012 252.681 1.3867C252.736 1.30632 252.775 1.2234 252.666 1.16391C252.577 1.11454 252.518 1.17973 252.472 1.24682C252.155 1.73164 251.815 2.1962 251.305 2.50822C251.245 2.54557 251.215 2.61265 251.252 2.68164C251.302 2.77785 251.397 2.76202 251.45 2.70696C251.864 2.25189 252.381 2.13164 252.977 2.21518C253.132 2.23734 253.283 2.12531 253.376 1.99936C253.49 1.84873 253.603 1.90062 253.728 1.95379C253.846 2.00316 253.903 2.0924 253.87 2.21835C253.833 2.35126 253.765 2.48481 253.609 2.48164C252.969 2.46455 252.415 2.74367 251.842 2.95759C251.644 3.03291 251.438 3.07595 251.22 3.03544C250.969 2.98924 250.778 3.08608 250.683 3.32722C250.382 4.10317 250.158 4.88925 250.177 5.73799C250.195 6.48736 250.152 7.238 250.133 7.98801C250.129 8.1051 250.131 8.22725 250.012 8.31332C249.955 8.35573 249.949 8.43231 250.008 8.48801C250.065 8.54117 250.127 8.51459 250.191 8.48421C251.667 7.77788 253.257 7.47914 254.864 7.25509C255.417 7.17724 255.971 7.10572 256.526 7.27724C256.657 7.31712 256.812 7.28294 256.978 7.28294C257.014 8.49307 256.678 9.59308 255.898 10.5602C255.772 10.7089 255.703 10.7171 255.565 10.5722Z" fill="white"></path></svg>